# xmcd
#
# Track frame offsets:
#	150
#	22469
#	41087
#	56835
#	72157
#	97735
#	133007
#	153038
#	170726
#	186917
#	215838
#
# Disc length: 3141 seconds
#
# Revision: 1
# Processed by: cddbd v1.5.2PL0 Copyright (c) Steve Scherf et al.
# Submitted via: audiograbber 1.83.01
#
DISCID=a30c430b
DTITLE=Invade - Blues Track
DYEAR=2010
DGENRE=Blues
TTITLE0=Just A Fool Who Loved You
TTITLE1=I'm The Lucky One
TTITLE2=Bring It Down To Jelly Roll
TTITLE3=Got You On My Mind
TTITLE4=Too Cool For Me
TTITLE5=Tough Times Ahead
TTITLE6=Good Time Loving
TTITLE7=Down By The Tracks
TTITLE8=Angel
TTITLE9=Grayvity
TTITLE10=Town Pump
EXTD=
EXTT0=
EXTT1=
EXTT2=
EXTT3=
EXTT4=
EXTT5=
EXTT6=
EXTT7=
EXTT8=
EXTT9=
EXTT10=
PLAYORDER=
